<svg width="25" height="25" viewBox="0 0 25 25" fill="none" xmlns="http://www.w3.org/2000/svg">
<path d="M18.75 20.8334C18.75 19.1758 18.0915 17.5861 16.9194 16.414C15.7473 15.2419 14.1576 14.5834 12.5 14.5834C10.8424 14.5834 9.25269 15.2419 8.08058 16.414C6.90848 17.5861 6.25 19.1758 6.25 20.8334" stroke="white" stroke-width="1.55881" stroke-linecap="round" stroke-linejoin="round"/>
<path d="M12.4997 14.5833C14.8009 14.5833 16.6663 12.7179 16.6663 10.4167C16.6663 8.11548 14.8009 6.25 12.4997 6.25C10.1985 6.25 8.33301 8.11548 8.33301 10.4167C8.33301 12.7179 10.1985 14.5833 12.4997 14.5833Z" stroke="white" stroke-width="1.55881" stroke-linecap="round" stroke-linejoin="round"/>
<path d="M12.4997 22.9167C18.2526 22.9167 22.9163 18.253 22.9163 12.5C22.9163 6.74707 18.2526 2.08337 12.4997 2.08337C6.74671 2.08337 2.08301 6.74707 2.08301 12.5C2.08301 18.253 6.74671 22.9167 12.4997 22.9167Z" stroke="white" stroke-width="1.55881" stroke-linecap="round" stroke-linejoin="round"/>
</svg>
